<svg width="20" height="20" viewBox="0 0 20 20" fill="none" xmlns="http://www.w3.org/2000/svg">
<path fill-rule="evenodd" clip-rule="evenodd" d="M14.8633 13.4326C17.3071 10.2941 17.0863 5.75344 14.2012 2.86826C11.077 -0.255933 6.01164 -0.255933 2.88745 2.86826C-0.236745 5.99246 -0.236745 11.0578 2.88745 14.182C5.77263 17.0672 10.3133 17.2879 13.4518 14.8442C13.4653 14.8594 13.4794 14.8744 13.4941 14.8891L17.7367 19.1317C18.1272 19.5222 18.7604 19.5222 19.1509 19.1317C19.5414 18.7412 19.5414 18.108 19.1509 17.7175L14.9083 13.4749C14.8936 13.4602 14.8786 13.4461 14.8633 13.4326ZM12.7869 4.28248C15.1301 6.62562 15.1301 10.4246 12.7869 12.7678C10.4438 15.1109 6.64481 15.1109 4.30166 12.7678C1.95852 10.4246 1.95852 6.62562 4.30166 4.28248C6.64481 1.93933 10.4438 1.93933 12.7869 4.28248Z" fill="#FEFAE0"/>
</svg>
